<svg width="538" height="223" viewBox="0 0 538 223" fill="none" xmlns="http://www.w3.org/2000/svg">
<path d="M162.98 174.6H137.18V219H93.0805V174.6H1.58047V143.1L95.4805 4.79999H137.18V139.5H162.98V174.6ZM93.0805 103.2C93.0805 98.6 93.1805 93 93.3805 86.4C93.5805 79.8 93.7805 73.7 93.9805 68.1C94.3805 62.3 94.6805 58.5 94.8805 56.7H93.6805C91.8805 60.7 89.9805 64.6 87.9805 68.4C85.9805 72.2 83.5805 76.1 80.7805 80.1L41.4805 139.5H93.0805V103.2ZM343.66 111.9C343.66 134.9 341.16 154.6 336.16 171C331.36 187.4 323.46 200 312.46 208.8C301.66 217.6 287.06 222 268.66 222C242.86 222 223.96 212.3 211.96 192.9C199.96 173.3 193.96 146.3 193.96 111.9C193.96 88.7 196.36 68.9 201.16 52.5C205.96 36.1 213.86 23.5 224.86 14.7C235.86 5.89999 250.46 1.49999 268.66 1.49999C294.26 1.49999 313.16 11.2 325.36 30.6C337.56 50 343.66 77.1 343.66 111.9ZM238.96 111.9C238.96 136.3 241.06 154.7 245.26 167.1C249.46 179.3 257.26 185.4 268.66 185.4C279.86 185.4 287.66 179.3 292.06 167.1C296.46 154.9 298.66 136.5 298.66 111.9C298.66 87.5 296.46 69.1 292.06 56.7C287.66 44.3 279.86 38.1 268.66 38.1C257.26 38.1 249.46 44.3 245.26 56.7C241.06 69.1 238.96 87.5 238.96 111.9ZM536.34 174.6H510.54V219H466.44V174.6H374.94V143.1L468.84 4.79999H510.54V139.5H536.34V174.6ZM466.44 103.2C466.44 98.6 466.54 93 466.74 86.4C466.94 79.8 467.14 73.7 467.34 68.1C467.74 62.3 468.04 58.5 468.24 56.7H467.04C465.24 60.7 463.34 64.6 461.34 68.4C459.34 72.2 456.94 76.1 454.14 80.1L414.84 139.5H466.44V103.2Z" fill="url(#paint0_linear)"/>
<path d="M162.98 174.6V175.6H163.98V174.6H162.98ZM137.18 174.6V173.6H136.18V174.6H137.18ZM137.18 219V220H138.18V219H137.18ZM93.0805 219H92.0805V220H93.0805V219ZM93.0805 174.6H94.0805V173.6H93.0805V174.6ZM1.58047 174.6H0.580469V175.6H1.58047V174.6ZM1.58047 143.1L0.753142 142.538L0.580469 142.793V143.1H1.58047ZM95.4805 4.79999V3.79999H94.9507L94.6531 4.23827L95.4805 4.79999ZM137.18 4.79999H138.18V3.79999H137.18V4.79999ZM137.18 139.5H136.18V140.5H137.18V139.5ZM162.98 139.5H163.98V138.5H162.98V139.5ZM93.3805 86.4L92.3809 86.3697L93.3805 86.4ZM93.9805 68.1L92.9828 68.0312L92.9817 68.0477L92.9811 68.0643L93.9805 68.1ZM94.8805 56.7L95.8744 56.8104L95.9977 55.7H94.8805V56.7ZM93.6805 56.7V55.7H93.0339L92.7685 56.2896L93.6805 56.7ZM87.9805 68.4L87.0956 67.9342L87.9805 68.4ZM80.7805 80.1L79.9612 79.5265L79.9537 79.5373L79.9465 79.5482L80.7805 80.1ZM41.4805 139.5L40.6465 138.948L39.6198 140.5H41.4805V139.5ZM93.0805 139.5V140.5H94.0805V139.5H93.0805ZM162.98 173.6H137.18V175.6H162.98V173.6ZM136.18 174.6V219H138.18V174.6H136.18ZM137.18 218H93.0805V220H137.18V218ZM94.0805 219V174.6H92.0805V219H94.0805ZM93.0805 173.6H1.58047V175.6H93.0805V173.6ZM2.58047 174.6V143.1H0.580469V174.6H2.58047ZM2.4078 143.662L96.3078 5.36171L94.6531 4.23827L0.753142 142.538L2.4078 143.662ZM95.4805 5.79999H137.18V3.79999H95.4805V5.79999ZM136.18 4.79999V139.5H138.18V4.79999H136.18ZM137.18 140.5H162.98V138.5H137.18V140.5ZM161.98 139.5V174.6H163.98V139.5H161.98ZM94.0805 103.2C94.0805 98.6134 94.1802 93.0241 94.38 86.4303L92.3809 86.3697C92.1807 92.9759 92.0805 98.5866 92.0805 103.2H94.0805ZM94.38 86.4303C94.58 79.8318 94.7799 73.7336 94.9798 68.1357L92.9811 68.0643C92.781 73.6664 92.581 79.7682 92.3809 86.3697L94.38 86.4303ZM94.9781 68.1688C95.3784 62.3643 95.6771 58.5859 95.8744 56.8104L93.8866 56.5896C93.6839 58.4141 93.3825 62.2357 92.9828 68.0312L94.9781 68.1688ZM94.8805 55.7H93.6805V57.7H94.8805V55.7ZM92.7685 56.2896C90.9768 60.2713 89.0858 64.1528 87.0956 67.9342L88.8654 68.8657C90.8752 65.0472 92.7841 61.1287 94.5924 57.1104L92.7685 56.2896ZM87.0956 67.9342C85.1176 71.6924 82.7403 75.5564 79.9612 79.5265L81.5997 80.6734C84.4206 76.6436 86.8433 72.7076 88.8654 68.8657L87.0956 67.9342ZM79.9465 79.5482L40.6465 138.948L42.3145 140.052L81.6145 80.6518L79.9465 79.5482ZM41.4805 140.5H93.0805V138.5H41.4805V140.5ZM94.0805 139.5V103.2H92.0805V139.5H94.0805ZM336.16 171L335.204 170.708L335.2 170.719L336.16 171ZM312.46 208.8L311.835 208.019L311.828 208.025L312.46 208.8ZM211.96 192.9L211.107 193.422L211.11 193.426L211.96 192.9ZM201.16 52.5L202.12 52.7809L201.16 52.5ZM224.86 14.7L224.235 13.9191L224.86 14.7ZM325.36 30.6L326.207 30.0676L325.36 30.6ZM245.26 167.1L244.313 167.421L244.315 167.426L245.26 167.1ZM292.06 167.1L291.119 166.761L292.06 167.1ZM292.06 56.7L291.118 57.0344L292.06 56.7ZM245.26 56.7L246.207 57.0208L245.26 56.7ZM342.66 111.9C342.66 134.833 340.167 154.429 335.204 170.708L337.117 171.292C342.153 154.771 344.66 134.967 344.66 111.9H342.66ZM335.2 170.719C330.446 186.965 322.644 199.373 311.835 208.019L313.085 209.581C324.277 200.627 332.275 187.835 337.12 171.281L335.2 170.719ZM311.828 208.025C301.257 216.639 286.904 221 268.66 221V223C287.216 223 302.063 218.561 313.092 209.575L311.828 208.025ZM268.66 221C243.153 221 224.602 211.436 212.811 192.374L211.11 193.426C223.319 213.164 242.568 223 268.66 223V221ZM212.813 192.378C200.946 172.995 194.96 146.201 194.96 111.9H192.96C192.96 146.399 198.975 173.605 211.107 193.422L212.813 192.378ZM194.96 111.9C194.96 88.7636 197.354 69.0637 202.12 52.7809L200.2 52.2191C195.366 68.7363 192.96 88.6364 192.96 111.9H194.96ZM202.12 52.7809C206.875 36.5353 214.677 24.1273 225.485 15.4809L224.235 13.9191C213.044 22.8727 205.046 35.6647 200.2 52.2191L202.12 52.7809ZM225.485 15.4809C236.261 6.8596 250.62 2.49999 268.66 2.49999V0.499992C250.3 0.499992 235.459 4.94038 224.235 13.9191L225.485 15.4809ZM268.66 2.49999C293.964 2.49999 312.521 12.0617 324.514 31.1323L326.207 30.0676C313.8 10.3383 294.556 0.499992 268.66 0.499992V2.49999ZM324.514 31.1323C336.574 50.3105 342.66 77.1977 342.66 111.9H344.66C344.66 77.0023 338.546 49.6895 326.207 30.0676L324.514 31.1323ZM237.96 111.9C237.96 136.332 240.06 154.864 244.313 167.421L246.207 166.779C242.061 154.536 239.96 136.268 239.96 111.9H237.96ZM244.315 167.426C246.459 173.654 249.552 178.413 253.644 181.613C257.746 184.821 262.772 186.4 268.66 186.4V184.4C263.148 184.4 258.574 182.929 254.876 180.037C251.168 177.137 248.262 172.746 246.206 166.774L244.315 167.426ZM268.66 186.4C274.453 186.4 279.427 184.818 283.526 181.613C287.614 178.416 290.756 173.663 293.001 167.439L291.119 166.761C288.964 172.737 286.007 177.134 282.294 180.037C278.593 182.932 274.068 184.4 268.66 184.4V186.4ZM293.001 167.439C297.461 155.072 299.66 136.531 299.66 111.9H297.66C297.66 136.469 295.459 154.728 291.119 166.761L293.001 167.439ZM299.66 111.9C299.66 87.4661 297.46 68.9288 293.003 56.3656L291.118 57.0344C295.46 69.2712 297.66 87.5339 297.66 111.9H299.66ZM293.003 56.3656C290.76 50.0444 287.619 45.2155 283.532 41.9672C279.434 38.7092 274.457 37.1 268.66 37.1V39.1C274.064 39.1 278.587 40.5908 282.288 43.5328C286.001 46.4845 288.961 50.9556 291.118 57.0344L293.003 56.3656ZM268.66 37.1C262.768 37.1 257.74 38.7066 253.638 41.9672C249.547 45.2189 246.456 50.0533 244.313 56.3792L246.207 57.0208C248.265 50.9467 251.173 46.481 254.882 43.5328C258.58 40.5934 263.152 39.1 268.66 39.1V37.1ZM244.313 56.3792C240.06 68.9365 237.96 87.4681 237.96 111.9H239.96C239.96 87.5319 242.061 69.2635 246.207 57.0208L244.313 56.3792ZM536.34 174.6V175.6H537.34V174.6H536.34ZM510.54 174.6V173.6H509.54V174.6H510.54ZM510.54 219V220H511.54V219H510.54ZM466.44 219H465.44V220H466.44V219ZM466.44 174.6H467.44V173.6H466.44V174.6ZM374.94 174.6H373.94V175.6H374.94V174.6ZM374.94 143.1L374.113 142.538L373.94 142.793V143.1H374.94ZM468.84 4.79999V3.79999H468.31L468.013 4.23827L468.84 4.79999ZM510.54 4.79999H511.54V3.79999H510.54V4.79999ZM510.54 139.5H509.54V140.5H510.54V139.5ZM536.34 139.5H537.34V138.5H536.34V139.5ZM466.74 86.4L465.74 86.3697L466.74 86.4ZM467.34 68.1L466.342 68.0312L466.341 68.0477L466.34 68.0643L467.34 68.1ZM468.24 56.7L469.234 56.8104L469.357 55.7H468.24V56.7ZM467.04 56.7V55.7H466.393L466.128 56.2896L467.04 56.7ZM461.34 68.4L460.455 67.9342L461.34 68.4ZM454.14 80.1L453.321 79.5265L453.313 79.5373L453.306 79.5482L454.14 80.1ZM414.84 139.5L414.006 138.948L412.979 140.5H414.84V139.5ZM466.44 139.5V140.5H467.44V139.5H466.44ZM536.34 173.6H510.54V175.6H536.34V173.6ZM509.54 174.6V219H511.54V174.6H509.54ZM510.54 218H466.44V220H510.54V218ZM467.44 219V174.6H465.44V219H467.44ZM466.44 173.6H374.94V175.6H466.44V173.6ZM375.94 174.6V143.1H373.94V174.6H375.94ZM375.767 143.662L469.667 5.36171L468.013 4.23827L374.113 142.538L375.767 143.662ZM468.84 5.79999H510.54V3.79999H468.84V5.79999ZM509.54 4.79999V139.5H511.54V4.79999H509.54ZM510.54 140.5H536.34V138.5H510.54V140.5ZM535.34 139.5V174.6H537.34V139.5H535.34ZM467.44 103.2C467.44 98.6134 467.54 93.0241 467.739 86.4303L465.74 86.3697C465.54 92.9759 465.44 98.5866 465.44 103.2H467.44ZM467.739 86.4303C467.939 79.8318 468.139 73.7336 468.339 68.1357L466.34 68.0643C466.14 73.6664 465.94 79.7682 465.74 86.3697L467.739 86.4303ZM468.337 68.1688C468.738 62.3643 469.036 58.5859 469.234 56.8104L467.246 56.5896C467.043 58.4141 466.742 62.2357 466.342 68.0312L468.337 68.1688ZM468.24 55.7H467.04V57.7H468.24V55.7ZM466.128 56.2896C464.336 60.2713 462.445 64.1528 460.455 67.9342L462.225 68.8657C464.235 65.0472 466.144 61.1287 467.952 57.1104L466.128 56.2896ZM460.455 67.9342C458.477 71.6924 456.1 75.5564 453.321 79.5265L454.959 80.6734C457.78 76.6436 460.203 72.7076 462.225 68.8657L460.455 67.9342ZM453.306 79.5482L414.006 138.948L415.674 140.052L454.974 80.6518L453.306 79.5482ZM414.84 140.5H466.44V138.5H414.84V140.5ZM467.44 139.5V103.2H465.44V139.5H467.44Z" fill="#565656"/>
<defs>
<linearGradient id="paint0_linear" x1="269" y1="-102" x2="269" y2="307" gradientUnits="userSpaceOnUse">
<stop stop-color="#C6C6C6"/>
<stop offset="1" stop-color="#C6C6C6" stop-opacity="0"/>
</linearGradient>
</defs>
</svg>
